<?xml version="1.0" standalone="no"?>
<!DOCTYPE svg PUBLIC "-//W3C//DTD SVG 20010904//EN"
 "http://www.w3.org/TR/2001/REC-SVG-20010904/DTD/svg10.dtd">
<svg version="1.0" xmlns="http://www.w3.org/2000/svg"
 width="420.000000pt" height="303.000000pt" viewBox="0 0 420.000000 303.000000"
 preserveAspectRatio="xMidYMid meet">

<g transform="translate(0.000000,303.000000) scale(0.100000,-0.100000)"
fill="#000000" stroke="none">
<path d="M1060 2683 c0 -73 36 -209 80 -298 94 -194 281 -347 497 -407 76 -21
97 -22 731 -26 l652 -3 0 48 c-1 104 -45 247 -111 361 -19 31 -72 95 -119 142
-97 98 -213 165 -347 202 -76 22 -96 22 -730 26 l-653 3 0 -48z"/>
<path d="M1063 1727 c22 -261 204 -515 449 -626 147 -67 117 -65 847 -68 l664
-4 -6 73 c-25 303 -229 558 -532 665 l-80 28 -674 3 -674 3 6 -74z"/>
<path d="M1063 804 c23 -266 209 -522 462 -633 123 -55 182 -61 570 -61 l360
0 -64 30 c-259 123 -445 388 -468 668 l-6 72 -430 0 -430 0 6 -76z"/>
</g>
</svg>
